<svg width="115" height="90" viewBox="0 0 115 90" fill="none" xmlns="http://www.w3.org/2000/svg">
<rect x="1.5" y="1.5" width="112" height="82" rx="11.5" fill="#6A210A" stroke="black" stroke-width="3"/>
<g filter="url(#filter0_d_16_9)">
<ellipse cx="57" cy="42.5013" rx="41" ry="36.5" fill="#715397"/>
<path d="M57 80.5013C80.3034 80.5013 99.5 63.6473 99.5 42.5013C99.5 21.3553 80.3034 4.50134 57 4.50134C33.6966 4.50134 14.5 21.3553 14.5 42.5013C14.5 63.6473 33.6966 80.5013 57 80.5013Z" stroke="black" stroke-width="3"/>
</g>
<g filter="url(#filter1_d_16_9)">
<path d="M30.9403 38.6172C30.9688 37.907 30.7614 37.3587 30.3182 36.9723C29.8807 36.586 29.2188 36.3928 28.3324 36.3928C27.7301 36.3928 27.2074 36.478 26.7642 36.6485C26.321 36.8132 25.9659 37.0433 25.6989 37.3388C25.4375 37.6286 25.2756 37.9638 25.2131 38.3445C25.1506 38.657 25.1705 38.9297 25.2727 39.1627C25.3807 39.3956 25.5483 39.5973 25.7756 39.7678C26.0085 39.9326 26.2841 40.0774 26.6023 40.2024C26.9205 40.3218 27.2585 40.424 27.6165 40.5093L29.1165 40.8843C29.8494 41.0547 30.5085 41.282 31.0938 41.5661C31.6847 41.8502 32.179 42.1996 32.5767 42.6144C32.9801 43.0291 33.2642 43.5178 33.429 44.0803C33.5938 44.6428 33.6165 45.2877 33.4972 46.0149C33.3153 47.0831 32.892 48.0093 32.2273 48.7933C31.5625 49.5718 30.6903 50.1769 29.6108 50.6087C28.5313 51.0348 27.2813 51.2479 25.8608 51.2479C24.4517 51.2479 23.2614 51.032 22.2898 50.6002C21.3182 50.1683 20.6108 49.5291 20.1676 48.6826C19.7301 47.8303 19.5994 46.7763 19.7756 45.5206H23.3466C23.2841 46.1058 23.3693 46.5945 23.6023 46.9865C23.8409 47.3729 24.196 47.6655 24.6676 47.8644C25.1392 48.0576 25.6932 48.1541 26.3295 48.1541C26.9602 48.1541 27.5199 48.0632 28.0085 47.8814C28.5028 47.6996 28.9034 47.4468 29.2102 47.1229C29.517 46.799 29.7045 46.4269 29.7727 46.0064C29.8409 45.6144 29.7812 45.2848 29.5938 45.0178C29.4062 44.7507 29.1051 44.5235 28.6903 44.336C28.2813 44.1428 27.7727 43.9723 27.1648 43.8246L25.3409 43.3473C23.9318 42.9894 22.8665 42.4297 22.1449 41.6683C21.4233 40.907 21.1648 39.8814 21.3693 38.5916C21.5511 37.5348 21.9915 36.6115 22.6903 35.8218C23.3949 35.0263 24.2812 34.4098 25.3494 33.9723C26.4233 33.5291 27.5966 33.3075 28.8693 33.3075C30.1648 33.3075 31.2585 33.532 32.1506 33.9808C33.0426 34.424 33.6932 35.0433 34.1023 35.8388C34.5114 36.6343 34.6364 37.5604 34.4773 38.6172H30.9403ZM39.9936 43.4326L38.7322 51.0007H35.1101L38.0078 33.5462H41.5277L40.4368 40.2195H40.5817C41.0021 39.4468 41.5788 38.8416 42.3118 38.4041C43.0447 37.961 43.9112 37.7394 44.9112 37.7394C45.8203 37.7394 46.5788 37.9382 47.1868 38.336C47.8004 38.728 48.2351 39.2933 48.4908 40.032C48.7464 40.7649 48.7891 41.6428 48.6186 42.6655L47.2209 51.0007H43.5987L44.8771 43.3132C45.0078 42.5064 44.9027 41.8786 44.5618 41.4297C44.2266 40.9808 43.6925 40.7564 42.9595 40.7564C42.4652 40.7564 42.0107 40.8615 41.5959 41.0718C41.1811 41.282 40.8317 41.5888 40.5476 41.9922C40.2692 42.3899 40.0845 42.8701 39.9936 43.4326ZM55.9929 51.2564C54.6577 51.2564 53.5526 50.9723 52.6776 50.4041C51.8026 49.8303 51.1861 49.0348 50.8281 48.0178C50.4759 46.9951 50.4105 45.8047 50.6321 44.4468C50.848 43.1058 51.2969 41.9326 51.9787 40.9269C52.6605 39.9212 53.527 39.1399 54.5781 38.5831C55.6293 38.0206 56.8139 37.7394 58.1321 37.7394C59.4616 37.7394 60.5639 38.0263 61.4389 38.6002C62.3139 39.1683 62.9304 39.9638 63.2884 40.9865C63.6463 42.0093 63.7145 43.1996 63.4929 44.5576C63.2713 45.8928 62.8168 47.0632 62.1293 48.0689C61.4418 49.0746 60.5753 49.8587 59.5298 50.4212C58.4844 50.978 57.3054 51.2564 55.9929 51.2564ZM56.3509 48.4439C56.9645 48.4439 57.5071 48.2706 57.9787 47.924C58.456 47.5718 58.8509 47.0945 59.1634 46.4922C59.4815 45.8843 59.7031 45.1968 59.8281 44.4297C59.9531 43.674 59.9616 43.0036 59.8537 42.4183C59.7457 41.8274 59.5185 41.3615 59.1719 41.0206C58.831 40.6797 58.3622 40.5093 57.7656 40.5093C57.152 40.5093 56.6065 40.6854 56.1293 41.0377C55.652 41.3843 55.2571 41.8615 54.9446 42.4695C54.6321 43.0774 54.4134 43.7678 54.2884 44.5405C54.169 45.2905 54.1605 45.961 54.2628 46.5519C54.3651 47.1371 54.5895 47.6002 54.9361 47.9411C55.2827 48.2763 55.7543 48.4439 56.3509 48.4439ZM63.9872 55.9098L67.0043 37.9098H70.5838L70.2173 40.1087H70.3793C70.5952 39.7564 70.8821 39.3985 71.2401 39.0348C71.6037 38.6655 72.0554 38.3587 72.5952 38.1144C73.1349 37.8644 73.7685 37.7394 74.4957 37.7394C75.456 37.7394 76.294 37.9894 77.0099 38.4894C77.7259 38.9837 78.2429 39.7308 78.5611 40.7308C78.8849 41.7252 78.9219 42.9723 78.6719 44.4723C78.4332 45.9326 77.9929 47.1655 77.3509 48.1712C76.7145 49.1712 75.9503 49.9297 75.0582 50.4468C74.1719 50.9581 73.2315 51.2138 72.2372 51.2138C71.5327 51.2138 70.9531 51.0973 70.4986 50.8644C70.0497 50.6314 69.7003 50.3388 69.4503 49.9865C69.2003 49.6286 69.0241 49.2678 68.9219 48.9041H68.7855L67.6264 55.9098H63.9872ZM69.4673 44.4553C69.3423 45.2337 69.3366 45.9127 69.4503 46.4922C69.5696 47.0718 69.8082 47.5235 70.1662 47.8473C70.5241 48.1655 70.9957 48.3246 71.581 48.3246C72.1719 48.3246 72.6974 48.1627 73.1577 47.8388C73.6179 47.5093 74.0014 47.0547 74.3082 46.4752C74.6151 45.8899 74.8338 45.2166 74.9645 44.4553C75.0838 43.6996 75.0866 43.0348 74.973 42.461C74.8594 41.8871 74.6264 41.4382 74.2741 41.1144C73.9219 40.7905 73.4446 40.6286 72.8423 40.6286C72.2571 40.6286 71.7315 40.7848 71.2656 41.0973C70.8054 41.4098 70.4219 41.853 70.1151 42.4269C69.8082 43.0007 69.5923 43.6769 69.4673 44.4553ZM79.9908 51.0007L82.1726 37.9098H85.8033L83.6214 51.0007H79.9908ZM84.3629 36.2053C83.8232 36.2053 83.3771 36.0263 83.0249 35.6683C82.6783 35.3047 82.5362 34.8729 82.5987 34.3729C82.6612 33.8615 82.9055 33.4297 83.3317 33.0774C83.7578 32.7195 84.2408 32.5405 84.7805 32.5405C85.3203 32.5405 85.7607 32.7195 86.1016 33.0774C86.4425 33.4297 86.5845 33.8615 86.5277 34.3729C86.4709 34.8729 86.2294 35.3047 85.8033 35.6683C85.3828 36.0263 84.9027 36.2053 84.3629 36.2053ZM95.6747 37.9098L95.223 40.6371H87.331L87.7912 37.9098H95.6747ZM90.0923 34.7735H93.723L91.6946 46.978C91.6378 47.3132 91.6463 47.5746 91.7202 47.7621C91.794 47.9439 91.9162 48.0718 92.0866 48.1456C92.2628 48.2195 92.473 48.2564 92.7173 48.2564C92.8878 48.2564 93.0611 48.2422 93.2372 48.2138C93.4134 48.1797 93.5469 48.1541 93.6378 48.1371L93.7741 50.8388C93.5696 50.9013 93.294 50.9695 92.9474 51.0433C92.6065 51.1172 92.2031 51.1627 91.7372 51.1797C90.8509 51.2138 90.1009 51.0973 89.4872 50.8303C88.8736 50.5576 88.4332 50.1399 88.1662 49.5774C87.8991 49.0149 87.8423 48.3076 87.9957 47.4553L90.0923 34.7735Z" fill="black"/>
</g>
<defs>
<filter id="filter0_d_16_9" x="7" y="3.00134" width="94" height="86" filterUnits="userSpaceOnUse" color-interpolation-filters="sRGB">
<feFlood flood-opacity="0" result="BackgroundImageFix"/>
<feColorMatrix in="SourceAlpha" type="matrix" values="0 0 0 0 0 0 0 0 0 0 0 0 0 0 0 0 0 0 127 0" result="hardAlpha"/>
<feOffset dx="-3" dy="4"/>
<feGaussianBlur stdDeviation="1.5"/>
<feComposite in2="hardAlpha" operator="out"/>
<feColorMatrix type="matrix" values="0 0 0 0 0 0 0 0 0 0 0 0 0 0 0 0 0 0 0.25 0"/>
<feBlend mode="normal" in2="BackgroundImageFix" result="effect1_dropShadow_16_9"/>
<feBlend mode="normal" in="SourceGraphic" in2="effect1_dropShadow_16_9" result="shape"/>
</filter>
<filter id="filter1_d_16_9" x="13.5114" y="32.5405" width="82.1633" height="30.3693" filterUnits="userSpaceOnUse" color-interpolation-filters="sRGB">
<feFlood flood-opacity="0" result="BackgroundImageFix"/>
<feColorMatrix in="SourceAlpha" type="matrix" values="0 0 0 0 0 0 0 0 0 0 0 0 0 0 0 0 0 0 127 0" result="hardAlpha"/>
<feOffset dx="-3" dy="4"/>
<feGaussianBlur stdDeviation="1.5"/>
<feComposite in2="hardAlpha" operator="out"/>
<feColorMatrix type="matrix" values="0 0 0 0 0 0 0 0 0 0 0 0 0 0 0 0 0 0 0.25 0"/>
<feBlend mode="normal" in2="BackgroundImageFix" result="effect1_dropShadow_16_9"/>
<feBlend mode="normal" in="SourceGraphic" in2="effect1_dropShadow_16_9" result="shape"/>
</filter>
</defs>
</svg>
